<svg xmlns="http://www.w3.org/2000/svg" width="128" height="128" viewBox="0 0 128 128">
  <rect width="128" height="128" rx="20" fill="#4f46e5"/>
  <g transform="translate(20, 24)" fill="none" stroke="#fff" stroke-width="3" stroke-linecap="round" stroke-linejoin="round">
    <!-- Left book -->
    <path d="M4 76V8a4 4 0 0 1 4-4h20a4 4 0 0 1 4 4v68" fill="#6366f1"/>
    <path d="M4 76V8a4 4 0 0 1 4-4h20a4 4 0 0 1 4 4v68"/>
    <line x1="14" y1="16" x2="24" y2="16" opacity="0.6"/>
    <line x1="14" y1="24" x2="22" y2="24" opacity="0.6"/>
    <!-- Middle book (taller) -->
    <path d="M32 76V4a4 4 0 0 1 4-4h22a4 4 0 0 1 4 4v72" fill="#818cf8"/>
    <path d="M32 76V4a4 4 0 0 1 4-4h22a4 4 0 0 1 4 4v72"/>
    <line x1="42" y1="12" x2="52" y2="12" opacity="0.6"/>
    <line x1="42" y1="20" x2="50" y2="20" opacity="0.6"/>
    <!-- Right book -->
    <path d="M62 76V12a4 4 0 0 1 4-4h20a4 4 0 0 1 4 4v64" fill="#a5b4fc"/>
    <path d="M62 76V12a4 4 0 0 1 4-4h20a4 4 0 0 1 4 4v64"/>
    <line x1="72" y1="20" x2="82" y2="20" opacity="0.6"/>
    <line x1="72" y1="28" x2="80" y2="28" opacity="0.6"/>
    <!-- Shelf -->
    <line x1="0" y1="80" x2="90" y2="80" stroke-width="4"/>
  </g>
</svg>
